# xmcd CD database file
#
# Track frame offsets:
#	150
#	23328
#	40601
#	61488
#	87867
#	118755
#	152677
#	179244
#	215916
#
# Disc length: 3190 seconds
#
# Revision: 0
# Processed by: cddbd v1.4PL0 Copyright (c) Steve Scherf et al.
# Submitted via: CDex 1.50
#
DISCID=770c7409
DTITLE=Point Com - Ci et là
DYEAR=2001
DGENRE=Jazz
TTITLE0=Fleur de l'eau
TTITLE1=Systèmes
TTITLE2=Clou de girofle
TTITLE3=L'as tu vue ?
TTITLE4=Biboulou
TTITLE5=Groove
TTITLE6=Escucho pansare a los indios
TTITLE7=Shapuli
TTITLE8=Sur le visage d'une inconnue
EXTD=YEAR: 2001
EXTT0=
EXTT1=
EXTT2=
EXTT3=
EXTT4=
EXTT5=
EXTT6=
EXTT7=
EXTT8=
PLAYORDER=
